<?xml version="1.0" encoding="UTF-8"?><svg id="a" xmlns="http://www.w3.org/2000/svg" viewBox="0 0 607.66 858.16"><path d="M607.66,17.72c-2.76-18.32-85.32-11.12-102.23-4.48-14.05-12.81-32.06-4.85-49.15-6.41-36.4,1.96-73.53-2.45-109.06,1.99-16.89,4.29-43.41-7.75-54.61,5.01-22.58-10.8-47.49-1.11-69.59-10.51-22.95,5.88-49.46-2.04-73.72,2.87-11.75-4.49-17.42,3.81-20.21,13.13-10.8,8.68.19-7.65-35.05-15.15C82.89,1.93-3.78-6.83,1.42,10.7c-.28,39.84.25,80.05-.71,119.53-2.7,14.61,2.89,22.28,15.48,23.22-2.62,4.22-2.34,11.63-8.44,12.31,1.04,4.15,1.86,6.07-3.76,7.13-4.74,7.3-1.74,21.18-3.14,30.34,3.72,41.68.33,83.46,5.5,124.61-2.99,12.27,12.39,26.08-.59,35.97-4.2,53.94.64,108.54-2.91,162.31,3.58,23.78-9.35,39.95,9.1,58.48,2.48,6.13,1.07,19.81-8.41,16.39-8.73,45.1,2.54,91.99-3.54,136.73.26,113.32,2.75,43.93,55.67,116.96,5.07.84,13.73,2.77,16.69-2.47,1.43-1.11,2.65-8.34,3.68-4.9,8.58,12.01,33.2,10.72,46.53,5.71,11.52,2.66,27.16,3.9,32.31-8.54,7.1-.14,8.08,6.68,13.04,10.71,11.28-.86,29.38,1.59,32.67-11.61.95,9.96,5.14,11.03,14.04,8.44,26.62.99,50.58,5.89,77.28,1.05,12.23,1.01,31.12,10.65,40.56.55,48.08,3.57,98.76,2.43,147.01,1.21,8.94,4.47,22.08,2.06,30.19-3.49,6.84,6.14,53.51,11.77,50.93-4.24,40.43,16.21,41.49-13.09,42.61-44.78-.1-262-2.61-522.42,4.47-784.58ZM306.05,35.55c-3.48-1.57-7.61-6.9-4.5-10.25,5.88-6.91,15.39,8.44,4.5,10.25Z"/></svg>