<svg xmlns="http://www.w3.org/2000/svg" viewBox="0 0 744.06 734.48"><path fill="none" d="M374.09.35c-10.91-1.95-22.06 4.84-32.74 6.75C231.48 26.73 119.06 17.66 8.8 16.02c-3.53-1.27-10.43-.7-4.2 4.32C21.3 34.56 47.61 48.43 54.04 70.9c1.33 57.85 2.78 115.41 1.6 173.48L9.13 268.87l-1.92 2.98c9.37 7.69 22.78 9.81 33.58 15.29 4.58 2.05 8.8 4.89 13.71 6.29 2.4 1.49 1.81 7.46 1.63 10.43-.77 27.04.17 53.79-.5 80.97.1 34.32-.26 69.87-.56 103.97-11.94 21.04-35.13 34.39-52 51-1.08 1.01-2.3 1.83-1.97 3.52 117.32-.18 243.05-13.74 357 20.01-5.58-55.83 11.35-109.28 19-164-1.04.43-2.09-1.11-3.01-.56-16.24 26.83-36.49 54.46-57.44 77.59-16.16 13.23-41.21 11.96-61 10.93-38.6-.3-76.82-.49-115.02-2.99-3.59-.23-12.41 1.36-14.05-1.94l-.03-194.08c30.15.67 63.88.89 95.1.09 7.98.1 17.42-2.28 24.38 3.53 12.96 8.87 22.16 22.16 32.06 33.94 3.9 4.64 5 4.43 5.04-2.05-6.02-38.13 1.03-77.08 7.03-114.88.59-3.81 4.9-11.92-1.07-12.57-2.08 9.61-39.8 39.21-49.75 40.75-36.3 6.41-75.73.49-112.24 1.23l-.05-174.51c.48-3.55 2.75-1.46 5.48-1.42 47.81 1.67 96.3-2.69 143.83 1.16 18.54 18.58 31.7 45.19 38.21 70.78l2.51-1.66c6.73-48.33 19.34-84.46 51.66-121.62 2.46-3.24 5.55-6.26 5.33-10.7Zm358.28 26.26c4.5-2.51 7.95-7.25 11.69-10.86-1.53-4.94-4.24-3.38-7.41-3.4-40.08 2.88-80.08.11-120.05.52-3.13.03-11.26-1.74-6.02 4.48 11.24 10.94 27.64 24.25 32.32 39.75 3.57 60.8-.63 123.58 1.1 184.15l-155.91.09c.03-56.37 1.82-113.87 1.47-170.5.44-23.8 10.93-35.91 27.51-51.03 2.61-2.38 6.01-2.65 5.03-7.47-45.46 1.78-90.46 1.27-136 0 2.35 10.88 19.22 18.28 25.46 28.04 17.8 26.41 5.96 87.57 8.52 120.49-.03 93.65.48 188.34.06 281.92-.09 20.77 2.48 52.99-6.62 71.48-3.73 11.62-26.63 24.67-25.42 32.08 42.96-.33 86.52-3.72 129.54 1.08 2.53-.2 3.25-1.83 5.47-2.08.41-1.84-.58-1.95-1.66-2.83-13.46-10.89-26.48-23.76-30.09-41.91-6.42-45.3-1.59-92.38-2.71-137.76-.93-2.82-.13-12.02 0-15-.98-14.23-1.1-43.19-.54-57.5 51.64-.06 104.23-4.44 156.01-1 0 58.57.61 118.05-.03 176.47-.28 25.22 4.07 57.63-14.24 77.26-2.07 2.22-8.18 4.77-7.79 8.75.28 2.88 4.32 4.23 6.1 5.97 14.45 14.69 25.41 35.43 32.73 54.27.97 2.65.39 9.39 4.23 9.28.26 1.97-2.78-.28-2 2.99l2.99-1c-1.35 3.81 1.28 7.09 1.01 11l3.99-1c1.14 4.49-1.5 3.7-1.82 4.13-.91 1.22.64 5.47 2.73 4.97l-.98 3.36c2.12.88 2.23.95 2.17 3.45l2.91.1-2 .99c-.54.76.75 6.01 1.5 7s2.51 1.17 3.04 1.97c.39.58-.47 1.67-.29 2.36.41 1.6 2.67 2.15.73 4.67h3.02l-1.01 3 3.99-1.99.05 5.41c-2.08 1.04-2.4.77-2.05 3.58 1.87-.55 4.09.67 5.54.63 1.57-.04 2.64-2.15 4.46-1.63l-.9 2.9 1.76.21c-1.28 1.36.29 3.74.15 3.88-1.58 1.56-3.05-3.27-4.51-3.99-2.71-1.34-.89 4.58-.4 4.91 1.15.78 4.53-1.47 4.61 2.61.02 1.12-3.1 1.62-.2 3.47l2.49-1.99c-.29 1.52.42 2.3 2.01 2.01l-5 5.99c3.08.1 1.94 2.03 3.23-.27.41-.74.76-1.78 1.77-1.73-.66 2.34 2.41 2.06 2.85 3.62.21.74-.61 3.1.15 4.38l-2.99-1c.58 2.12 1.1 3.12-.99 4.5l1.98 1.5 4.01-4c1.22 2.57-2.24 1.79-2 2.49.44 1.28 1.51 3.01 3.01 2.52l-2 2.99 6-2.99-2 2.99 3 .5c-4.05 2.85-.23 6.45 3.04 8.04-.01 2.53-3.85 4.51-3.04 7.46 3.72 0 4.6-1.07 5.97 2.53.79 2.08-1.79 1.3-2.99 1.94-1.74.93.32 2.16.02 3.52 3.3.81 1.35-2.1 2.1-2.86.35-.47 3.91.04 3.89-2.14-2.44.33-2.15-.77-2-3.01l3-.99c-1.74.04-5.32.89-4-2.5 1.18-3.01 4 1.41 4-2 0-.81-3.97-1.58-5-1.51 4.93-5-.12-9.64 2.01-15.48l-2 .5c.13-.96-.6-2.65.68-3s2.75-.56 1.31-2.01l-2.99 1c-.34-.31 4.01-6.83 1-8.56l-2 .56c-2.49-201.1-1.15-405.22-.95-605.46-1.39-25.36.64-42.66 21.21-60.27Z"/><path d="M372.99 398.78c-16.23 26.83-36.5 54.47-57.44 77.59-16.14 13.22-41.23 11.96-61 10.93-38.6-.3-76.82-.49-115.02-2.99-3.59-.23-12.41 1.36-14.05-1.94l-.03-194.08c30.14.67 63.89.89 95.1.09 7.99.1 17.41-2.28 24.38 3.53 12.96 8.87 22.16 22.16 32.06 33.94 3.9 4.64 5 4.43 5.04-2.05-6.02-38.13 1.02-77.08 7.03-114.88.59-3.81 4.9-11.92-1.06-12.57-.29 1.94-2.03 5.41-3.28 6.73-11.64 9.24-31.8 30.68-46.48 34.03-36.28 6.41-75.75.49-112.23 1.23l-.05-174.51c.48-3.55 2.75-1.46 5.48-1.42 47.81 1.67 96.3-2.69 143.83 1.16 18.55 18.58 31.68 45.18 38.21 70.78l2.51-1.66c6.72-48.3 19.33-84.46 51.65-121.62 2.46-3.24 5.55-6.26 5.33-10.7C253.75 27.44 128.91 18.62 7.7 16.02c-4.25-1.48-10.03-.29-4.2 4.33 16.73 14.23 43 28.08 49.44 50.56 1.32 57.86 2.78 115.41 1.6 173.48L8.03 268.88l-1.92 2.98c9.38 7.69 22.78 9.81 33.58 15.29 4.58 2.05 8.8 4.89 13.71 6.29 2.4 1.49 1.81 7.46 1.63 10.43-.67 61.33-.26 123.63-1.06 184.94-11.76 22.8-39.63 34.93-53.97 54.52 117.35-.18 243.02-13.74 357 20.01-5.58-55.83 11.35-109.28 19-164-1.04.43-2.09-1.11-3.01-.56M735.55 12.35c-40.09 2.88-80.08.11-120.05.52-3.13.03-11.26-1.74-6.02 4.48 11.26 10.96 27.63 24.24 32.32 39.75 3.57 60.79-.63 123.59 1.1 184.15l-155.91.09c.03-56.37 1.82-113.87 1.47-170.5.44-23.8 10.93-35.91 27.51-51.03 2.61-2.38 6.01-2.65 5.03-7.47-45.46 1.78-90.46 1.27-136 0 2.36 10.95 19.22 18.25 25.46 28.04 17.79 26.47 5.96 87.43 8.51 120.49-.03 93.65.48 188.34.07 281.91-.09 20.77 2.48 52.99-6.62 71.48-3.63 11.44-26.75 24.91-25.42 32.08 44.55-2.71 91.26.72 135-1.01.41-1.84-.58-1.95-1.66-2.83-13.46-10.89-26.48-23.76-30.1-41.91-6.72-69.47-1.47-140.58-3.25-210.26 51.64-.05 104.23-4.44 156.01-1 0 58.58.61 118.05-.03 176.47-.28 25.22 4.07 57.63-14.24 77.26-2.07 2.22-8.18 4.77-7.79 8.76 16.9 15.8 30.84 38.21 38.83 60.24.97 2.65.39 9.39 4.23 9.28.26 1.97-2.78-.28-2 2.99l2.99-1c-1.35 3.81 1.28 7.09 1.01 11l3.99-1c1.14 4.49-1.5 3.7-1.82 4.13-.91 1.22.64 5.47 2.73 4.97l-.98 3.36c2.12.89 2.23.95 2.17 3.45l2.91.1-2 .99c-.54.76.75 6.01 1.5 7 .76 1 2.51 1.17 3.04 1.97.39.58-.47 1.67-.29 2.36.41 1.6 2.67 2.15.73 4.67H681l-1.01 3 3.99-1.99.05 5.41c-2.08 1.04-2.4.77-2.05 3.58 1.87-.55 4.09.67 5.54.63 1.57-.04 2.64-2.15 4.46-1.63l-.9 2.9 1.76.21c-1.28 1.36.29 3.74.15 3.88-1.58 1.56-3.05-3.27-4.51-3.99-2.71-1.34-.89 4.58-.4 4.91 1.15.78 4.53-1.47 4.61 2.61.02 1.12-3.1 1.62-.2 3.47l2.49-1.99c-.29 1.52.42 2.3 2.01 2.01l-5 5.99c3.08.1 1.94 2.03 3.23-.27.41-.74.76-1.78 1.77-1.73-.66 2.34 2.41 2.06 2.85 3.62.21.74-.61 3.1.15 4.38l-2.99-1c.58 2.12 1.1 3.12-.99 4.5l1.98 1.5 4.01-4c1.22 2.57-2.24 1.79-2 2.49.44 1.28 1.51 3.01 3.01 2.52l-2 2.99 6-2.99-2 2.99 3 .5c-4.05 2.85-.23 6.45 3.04 8.04-.01 2.53-3.85 4.51-3.04 7.46 3.72 0 4.6-1.07 5.97 2.53.79 2.08-1.79 1.3-2.99 1.94-1.74.93.32 2.16.02 3.52 3.3.81 1.35-2.1 2.1-2.86.35-.47 3.9.05 3.89-2.14-2.44.33-2.15-.77-2-3.01l3-.99c-1.74.04-5.32.89-4-2.5 1.18-3.01 4 1.41 4-2 0-.81-3.97-1.58-5-1.51 4.93-5-.12-9.64 2.01-15.48l-2 .5c.13-.96-.6-2.65.68-3 1.26-.34 2.75-.56 1.31-2.01l-3 1c-.34-.31 4.01-6.83 1-8.56l-2 .56c-2.49-201.1-1.15-405.23-.94-605.46-1.36-25.64.58-42.43 21.21-60.27 4.5-2.51 7.96-7.25 11.69-10.86-1.53-4.94-4.24-3.38-7.41-3.4Z"/></svg>