<?xml version="1.0" encoding="UTF-8"?><svg id="Ebene_1" xmlns="http://www.w3.org/2000/svg" viewBox="0 0 1298.84 405.54" width="50px" fill="#d6b35c"><path d="M121.61.29c5.91-1.74,6.95,4.8,4.45,6.45-5.58,3.7-8.44-5.28-4.45-6.45Z"/><path d="M449,209.17c-15.64-15.01-6.4-38.75-31.31-43.17-37.73-21.31-51.89-65.19-80.28-95.77-20.67-27.6-143.44-84.48-91.58-17.37-8.64-9.33-35.34-43.83-67.31-37.7-27.05-4.05,5.58,21.77,9.66,34.34,20.78,41.42-19.39-21.58-30.44-34.06C105.67,12.82,48.66,11.33,0,32.68c35.48,10.56,62.9,37.05,87.54,63.46,61.43,103.42,173.97,99.28,279.95,95.06,8.82-1.58,19.89,2.74,27.52-.03-138.43-2.59-229.77-125.5-359-150.01,11.11-3.22,26,3.07,38,5-11.63-7.69-27.98-9.68-42-12,89.47,8.08,159.95,89.6,243.01,121.49,22.81,21.13,222.08,41.39,133.46,39.55-89.94-12.75-203.1,28.76-276.98-37.02-41.41,55.97-157.06,31.81-34.48,78.46,18.4,8.25,31.39,34.66,48.64,11.67,59.42-30.09,127.05-25.04,193.96-21.95C86.98,224.44,200.68,265.14,0,386.2c42.45,25.64,104.78,18.17,154.3,18.79,12.56-9.07,49.2-68.61,30.88-30.12-2.13,3.68-19.46,27.07-17.18,29.32,21.39-.63,44.96-.13,61.02-16.47,5.85-4.1,17.98-26.67,12.17-9.82-30.94,48.61,87.25-7,100.33-31.68,29.94-35.84,48.36-85.29,96.04-101.99-2.95-12.15.46-28.06,11.43-35.05ZM208.01,177.67c16.61-5.32,72.72.23,101.99,3.52-32.15,1.6-68.65-.5-101.99-3.52ZM185.01,168.19c30.04-2.77,66.71-1.51,95.99,5-25.53-2.73-72.67,4.47-95.99-5ZM172.66,162.02c14.94-9.57,64.02-3.28,88.35,2.16-26.87-2.33-60.9,1.89-88.35-2.16ZM156.01,150.19c28.21-2.37,57.48-2.25,85,5-23.23-4.39-66.92,6.81-85-5ZM151.51,146.26c-23.09-16.59,67.94-4.59,81.49,1.93-24.17-1.27-55.39-6.29-81.49-1.93ZM216.01,140.18c-19.86-5.35-42.25-5.67-62.48-4.97-61.4-7.04,46.5-12.32,62.48,4.97ZM125.45,123.23c-2.73-16.88,59.59-.16,76.56,5.96-22.62-3.28-52.52-4.86-76.56-5.96ZM117.5,113.18c-12.52-15.6,56.04-.8,70.5,6.01-20.13-3.37-48.21-7.35-70.5-6.01ZM108,102.68c-16.53-14.71,50.57-2.86,61.01,6.49-18.16-6.94-42.91-5.08-61.01-6.49ZM98.7,90.99c-19.75-16.16,45.03.2,55.31,7.2-15.95-1.56-37.02-7.63-55.31-7.2ZM88.69,78.99c-22.67-15.93,39.25.52,49.31,7.2-14.21.18-33.02-8.39-49.31-7.2ZM66.01,61.19c18.11-.65,35.13,6.49,51.99,12-14.51-2.04-37.76-3.82-51.99-12ZM97.01,62.18c-13.99-6.02-32.51-1.89-44-11.99,14.56.26,31.9,3.97,44,11.99ZM393.01,162.18c-11.46-6.63-21.34-18.86-23.99-32,4.87,8.14,16.72,25.98,23.99,32ZM358.02,114.18c8.37,15.73,10.6,36.67,26.99,47.99-17.23-7.82-28.28-29.01-26.99-47.99ZM369,155.18c-18.64-10.74-21.48-37.11-21.99-57,10.4,16.99,6.08,42.02,21.99,57ZM355,148.18c-16.96-17.18-15.72-43.86-20.98-66,16.29,17.19,6.62,45.85,20.98,66ZM344,139.18c-17.45-18-14.83-46.57-22.98-69,18.5,17.04,9.65,48.2,22.98,69ZM334,132.18c-18.59-19.12-16.35-49.95-27.99-73,19,10.93,16.19,54.4,27.99,73ZM323,124.18c-17.55-21.35-17.29-52.27-32.99-75,23.8,14.6,20.8,51.92,32.99,75ZM311,113.18c-13.4-19.04-23.71-51.14-36.99-71,21.26,5.85,28.49,54.2,36.99,71ZM299,103.18c-18.18-18.16-25.83-45.37-40.99-66,22.29,10.2,32.03,44.68,40.99,66ZM62.01,28.19c23.95-.24,46.39,17.63,64,31.99-20.15-10.67-41.51-25.4-64-31.99ZM84.01,27.18c24.74.21,44.07,27.72,62,42.99-20.93-12.59-39.74-31.3-62-42.99ZM149.49,69.2c-13.84-16.62-31.26-30.76-49.48-42.52,10.02-4.19,22.46,9.68,29.7,15.8,7.36,6.93,39.7,43.68,19.78,26.72ZM118,25.66c22.45,3.88,40.41,42.31,54,59.52-17.47-18.66-37.77-44.43-54-59.52ZM132.01,26.18c26.24,7.45,38.95,50.67,55.99,71-21.27-20.81-34.19-50.21-55.99-71ZM146.01,28.19c21.14,8.43,41,56.63,53.99,74-23.63-19.37-32.58-52.47-53.99-74ZM183.01,65.18c9.86,8.71,28.1,40.93,35.99,52-15.37-13.25-27.79-33.92-35.99-52ZM185.01,28.19c21.85,6.97,32.26,67.99,41.99,87-18.6-25.83-22.25-61.22-41.99-87ZM196.01,30.18c29.1,17.69,25.29,68.33,43.99,96-22.27-27.44-22.76-67.15-43.99-96ZM208.01,33.18c31.94,21.53,21.91,71.48,44.99,100-24.3-16.67-26.21-74.74-44.99-100ZM226.01,46.18c25.91,25.25,16.01,70.99,43.99,96-32.15-18.06-28.28-66.1-43.99-96ZM242.02,61.18c18.9,25.33,15.82,66.66,42.99,87-32.24-15.84-31.62-57.44-42.99-87ZM256.01,77.18c13.34,22.87,16.65,53.29,37.99,72-24.82-12.99-31.57-46.9-37.99-72ZM269.01,94.18c11.37,24.23,23.31,48.47,45.99,63.99-26.89-11.37-38.29-37.41-45.99-63.99ZM279.01,104.18c16.88,23.05,34.45,48.32,60.99,61.01-23.62-2.42-54.09-37.57-60.99-61.01ZM249.02,36.17c43.19,66.69,88.18,135.25,175.99,148-85.87-5.25-141.52-76.11-175.99-148ZM90.01,214.17c46.74,21.56,50.21,8,96,.02-62.35,17.89-33.97,42.34-96-.02ZM130.51,185.18c-9.71,12.58-28.16,18.73-43.51,21,63.61-40.85,36.37-19.78,99.99-2-22.26,3.16-37.88-8.76-56.49-19.01ZM300,239.19c-32.27,6.2-66.12,1.64-98.99,2.98,32.38-4.69,66.15-1.75,98.99-2.98ZM281,245.19c-29.65,10.36-65.5,6.28-97,5.98,26.75-10.37,67.21-.59,97-5.98ZM261,254.19c-30.02,9.87-62.74,4.7-94,5.98,27.25-13.54,63.88-.3,94-5.98ZM246,262.19c-27.49,11.44-61.14,7.18-91,7.98,25.8-13.01,62.08.3,91-7.98ZM149.52,274.2c25.51-1,52.1,2.95,77.48-3.01-10.5,8.03-102.15,17.96-77.48,3.01ZM214,279.19c-24.87,14.09-55.22,11.49-83,11.98,21.96-13.74,57.21.04,83-11.98ZM125,296.68c23.54-1.38,50.44-1.17,74-6.49-11.32,7.27-83.72,19.79-74,6.49ZM184,300.19c-11.64,5.98-68.43,18.06-70.49,8.99,21.47-7.25,47.78-1.92,70.49-8.99ZM105.43,319.13c17.41-4.6,45.64-5.26,63.57-9.94-11.65,8.64-67.59,22.11-63.57,9.94ZM153.01,321.19c-18.01,9.91-42.26,12.81-63,14.98,15.53-15.16,43.07-7.22,63-14.98ZM91.59,340.27c14.76-1.56,31.28-3.89,45.41-9.08-8.59,12.08-76.84,21.66-45.41,9.08ZM122,343.19c-16.27,9.38-35.16,16.07-54,16.99,14.37-12.51,36.75-9.67,54-16.99ZM95.01,359.19c-10.24,8.5-26.01,9.57-39,10.99,8.16-9.87,27.69-5.8,39-10.99ZM67,373.19c-6.02,4.39-16.27,5.88-24,5.99,5.34-5.32,16.62-5.19,24-5.99ZM32.02,387.71c118.71-35.38,232.74-150.73,349.68-159.99,8.95.08,17.85-.01,26.68-.37-124.59,11.79-227.83,99.94-349.35,156.37-4.88-.39-31.27,8.33-27.02,3.99ZM257.01,337.18c5.45-27.26,14.95-60.47,42.99-71.99-26.86,17.64-26.55,47.85-42.99,71.99ZM309.01,265.19c-11.51,10.7-24.6,25.4-32.99,38.99,4.93-16.62,18.01-30.76,32.99-38.99ZM336.01,255.19c-25.4,16.86-46.47,41.89-62,67.99,8.08-26.49,35.22-59.73,62-67.99ZM124,360.18c-13.74,15.05-37.45,29.46-58.99,29.99,19.63-7.67,41.29-16.69,58.99-29.99ZM82,393.17c20.03-9.03,41.42-27.19,60.01-40.98-15.33,14.74-37.03,44.04-60.01,40.98ZM100.01,394.18c16.76-6.68,55.65-55.05,54.99-46.5-14.83,16.11-30.45,47.14-54.99,46.5ZM118.01,392.19c22.64-13.28,33.2-40.57,53-57-13.86,14.41-31.01,61.34-53,57ZM135,389.68c19.66-17.55,29.85-47.92,51-62.49-9.17,11.4-44.96,76.96-51,62.49ZM146,390.68c21.71-22.53,32.85-54.09,57-74.5-10.04,10.21-45.19,80.37-57,74.5ZM183.01,356.18c6.58-17.06,18.57-33.73,31.99-46-9.36,15.33-19.1,33.22-31.99,46ZM229,303.18c-8.59,20.15-24.25,71.24-38.25,87.73-9.05-1.5,30.32-71.59,38.25-87.73ZM196.01,391.18c21.45-28.57,21.53-69.6,45-95.99-17.55,22.36-18.97,86.26-45,95.99ZM212.2,382.88c16.22-28.29,15.62-67.65,37.8-92.69-13.97,24.14-17.25,73.59-34.29,93.7-3.46,2.69-8.32,5.37-3.51-1.01ZM228.01,374.18c11.21-30.48,10.17-69.16,35.99-92-21.44,26.48-14.95,66.69-35.99,92ZM243.01,357.18c7.77-29.01,8.46-65.92,36.99-82.99-24.91,21.99-19.37,57.79-36.99,82.99ZM260.01,382.18c9.87-21.17,22.37-42.53,38-59.99-11.01,18.9-19.54,48.54-38,59.99ZM274.01,377.18c11.3-22.03,21.79-46.54,35.99-67-10.31,21.46-13.25,55.23-35.99,67ZM289.01,372.18c16.73-23.27,17.53-60.63,38-79.99-16.58,23.14-11.81,64.98-38,79.99ZM307.01,361.18c2.63-15.33,35.33-106.04,18.46-48.03-5.47,15.62-2.8,38.54-18.46,48.03ZM321.01,351.18c.44-14.9,27.43-94.36,17.72-55.77-6.74,17.22-2.63,43.46-17.72,55.77ZM336,338.18c-.67-17.87,4.05-45.55,16-61-8.56,19.14-5.55,43.85-16,61ZM364,268.18c-11.67,17.37-6.23,39.71-17.99,55,3.3-18.57,2.64-41.74,17.99-55ZM376,263.19c-10.25,12.15-11.01,31.91-18.99,44,1.67-14.88,4.38-36.71,18.99-44ZM369.01,288.18c2.13-12.82,11.97-28.69,24.99-31.99-5.92,3.49-20.84,26.25-24.99,31.99ZM251.01,384.18c27.88-73.06,94.72-146.77,178-148.99-86.54,9.84-139.6,79.69-178,148.99Z"/><path d="M1081.36,95.32c-9.78-4.03-18.12-2.37-12.56,9.55,26.63,44.32,41.42,91.97-30.8,83.31,3.03,14.47,2.6,29.5,0,44,96.55-4.96,38.19,44.51,29.94,92.56,24.69,2.69,50.72-22.98,74.03-32.1,270.42-122.1,152.09-66.98-60.62-197.32Z"/><path d="M705.74,117.42c-43.2,14.51-67.42,60.45-111.51,72.5-36.73,9.43-134.67,11.97-126.42-45.43,3.12-11.43,25.48-13.67,19.24,1.26,14.24,38.96,44.39-20.47,2.48-24.6-77.54,1.98-24.68,90.72,28.06,86.94,16.03-.42,7.4,2.79-1.82,3.36-132.11,22.87-28.06,145.66-3.97,59.43-9.49-19.41-28.98-7.67-25.07,11.04-25.49,10.73-25.93-31.52-6.66-40.15,98.35-67.92,168.27,51.37,255.45,64.43,118.73-9.49,92.34-226.74-29.78-188.78ZM784,222.69c-22.05-26.47-74.46-3.88-58.83,26.83,6.98,13.71,26.89,10.3,29.83-4.33-14.96,8.09-23.34-15.43-7.29-18.8,17.71-3.71,28.87,11.98,27.32,28.32-46.62,93.19-125.11-38.88-193.15-44.86,61.81-6.14,95.57-81.2,159.53-76.57,42.91-.01,45.33,75.68-.14,56.64-7.57-11.06,3.67-19.25,14.73-16.74-3.4-16.35-27.55-14.28-32.49.01-13.56,41.98,64.9,48.06,68.5,7.99,9.62,12.08-2.17,24.2-15.01,27.01,1.06,4.52,14.46,8.46,16.51,13.99,1.68,18.75-2.06,14.63-9.51.51Z"/><path d="M811.29,161.39c.18,20.49,15.44,67.75-4.28,96.79,82.4-55.26,240.94,12.6,201.51-70.01-63.42,3.61-138.95,3.77-197.24-26.79ZM825.01,237.18c5.85-17.43,24.67-26.95,42.51-25.99,8.53,1.62-22.26,4.92-26,11.01-24.94,16.04,92.3-14.03,103.49-13.01-36.03-3.72-73.81-8.82-108.48-19.03-9.36,7.54,34.36,16.68,19.94,16.08-17.48.13-26.98-12.36-33.45-27.04,45,22.41,109.08,23.9,159,29-50,13.03-106.99,10.58-156.99,28.99Z"/><path d="M620,264.67c-18.31,10.73-52.65-6.41-34-27.49-21.84,2.67-48.05-12.79-65.99,6.98,55.36-9.32,56.02,73.02,122.95,23.46.89-.83,1.38-.95,1.05-2.43-10.28-8.85-11.84-8.93-24-.52Z"/><path d="M555.43,186.1c9.97-3.3,18.31-5.89,28.58-3.92-17.57-30.81,34.08-33.65,51.29-21.13,27.15-15.82-28.25-25.51-41.54-21.62-25.78,1.8-28.87,35.37-54.24,36.76-42.81-3.12-2.07,13.34,15.92,9.92Z"/><path d="M503.01,208.19c-22.67-1.34-41.77-19.38-55.48-35.02-14.43,5.92.5,31.46,10.48,36.02-13.67,5.1-24.55,32.86-9.96,38.53,11.04-21.79,34.93-30.21,54.96-39.54Z"/><path d="M1021.72,178.37c-14.24,7.67-.46,29.38-4.69,42.33-6.23,12.52,6.31,27.36,15.04,12.03,4.67-13.69,9.74-52.08-10.35-54.37Z"/><path d="M706.01,211.18c-13.03,4.56-66.53,30.42-34.67,38.89,18.47-19.24,50.42-28.75,70.67-41.88-28.33-3.69-51.65-24.52-74.34-38.92-24.5,17.61,29.43,31.36,38.34,41.91Z"/></svg>