<svg xmlns="http://www.w3.org/2000/svg">
  <symbol id="eh-logo" viewBox="0 0 744.06 734.48">
    <path fill="none" d="M374.09.35c-10.91-1.95-22.06 4.84-32.74 6.75C231.48 26.73 119.06 17.66 8.8 16.02c-3.53-1.27-10.43-.7-4.2 4.32C21.3 34.56 47.61 48.43 54.04 70.9c1.33 57.85 2.78 115.41 1.6 173.48L9.13 268.87l-1.92 2.98c9.37 7.69 22.78 9.81 33.58 15.29 4.58 2.05 8.8 4.89 13.71 6.29 2.4 1.49 1.81 7.46 1.63 10.43-.77 27.04.17 53.79-.5 80.97.1 34.32-.26 69.87-.56 103.97-11.94 21.04-35.13 34.39-52 51-1.08 1.01-2.3 1.83-1.97 3.52 117.32-.18 243.05-13.74 357 20.01-5.58-55.83 11.35-109.28 19-164-1.04.43-2.09-1.11-3.01-.56-16.24 26.83-36.49 54.46-57.44 77.59-16.16 13.23-41.21 11.96-61 10.93-38.6-.3-76.82-.49-115.02-2.99-3.59-.23-12.41 1.36-14.05-1.94l-.03-194.08c30.15.67 63.88.89 95.1.09 7.98.1 17.42-2.28 24.38 3.53 12.96 8.87 22.16 22.16 32.06 33.94 3.9 4.64 5 4.43 5.04-2.05-6.02-38.13 1.03-77.08 7.03-114.88.59-3.81 4.9-11.92-1.07-12.57-2.08 9.61-39.8 39.21-49.75 40.75-36.3 6.41-75.73.49-112.24 1.23l-.05-174.51c.48-3.55 2.75-1.46 5.48-1.42 47.81 1.67 96.3-2.69 143.83 1.16 18.54 18.58 31.7 45.19 38.21 70.78l2.51-1.66c6.73-48.33 19.34-84.46 51.66-121.62 2.46-3.24 5.55-6.26 5.33-10.7Z"/>
    <path d="M372.99 398.78c-16.23 26.83-36.5 54.47-57.44 77.59-16.14 13.22-41.23 11.96-61 10.93-38.6-.3-76.82-.49-115.02-2.99-3.59-.23-12.41 1.36-14.05-1.94l-.03-194.08c30.14.67 63.89.89 95.1.09 7.99.1 17.41-2.28 24.38 3.53 12.96 8.87 22.16 22.16 32.06 33.94 3.9 4.64 5 4.43 5.04-2.05-6.02-38.13 1.02-77.08 7.03-114.88.59-3.81 4.9-11.92-1.06-12.57-.29 1.94-2.03 5.41-3.28 6.73-11.64 9.24-31.8 30.68-46.48 34.03-36.28 6.41-75.75.49-112.23 1.23l-.05-174.51c.48-3.55 2.75-1.46 5.48-1.42 47.81 1.67 96.3-2.69 143.83 1.16 18.55 18.58 31.68 45.18 38.21 70.78l2.51-1.66c6.72-48.3 19.33-84.46 51.65-121.62 2.46-3.24 5.55-6.26 5.33-10.7Z"/>
  </symbol>
</svg>
